<?xml version="1.0" encoding="utf-8"?>
<!-- Generator: Adobe Illustrator 26.5.3, SVG Export Plug-In . SVG Version: 6.00 Build 0)  -->
<svg version="1.1" xmlns="http://www.w3.org/2000/svg" xmlns:xlink="http://www.w3.org/1999/xlink" x="0px" y="0px"
	 viewBox="0 0 205 205" style="enable-background:new 0 0 205 205;" xml:space="preserve">
<style type="text/css">
	.st0{fill:#848484;}
	.st1{fill:#1C1C1C;}
</style>
<g id="_x31_500_x__x_1500_px_Sticker_6">
	<g id="Background">
	</g>
	<g id="Graphic_Element">
	</g>
	<g id="Text">
	</g>
</g>
<g id="_x31_500_x__x_1500_px_Sticker_5">
	<g id="Background_1_">
	</g>
	<g id="Graphic_Element_1_">
	</g>
	<g id="Text_1_">
	</g>
</g>
<g id="_x31_500_x__x_1500_px_Sticker_4">
	<g id="Background_2_">
	</g>
	<g id="Graphic_Element_2_">
	</g>
	<g id="Text_2_">
	</g>
</g>
<g id="_x31_500_x__x_1500_px_Sticker_3">
	<g id="Background_3_">
	</g>
	<g id="Graphic_Element_3_">
		<g>
			<path class="st0" d="M43.4,82.5c0,0-0.5-3.5,3.1-4.5c0,0,1.4-3.3,9.9-2.9c8.5,0.4,29.6,4.9,52.5,17c15.9,8.4,31.8,13.8,39.9,16.2
				c3.2,1,6.6-0.6,7.9-3.7l3.6-8.3c1.4-3.1,5.3-4.1,8-2.1l0,0c3.5,2.6,5.6,6.6,6,11l2.7,31.1l-42.4-14.7L43.4,82.5z"/>
			<path class="st1" d="M66.1,105.8L4.2,127.8c-2.3,0.8-2.2,4.1,0.1,4.8l5.1,1.6c4.3,1.3,8.9,1.6,13.3,0.9l71.6-11.2
				c1.1-0.2,2.2-0.2,3.3-0.1l14.1,1c1,0.1,1.9,0.3,2.9,0.6l7,2.4c3.6,1.2,7.4,2.1,11.2,2.6l4.4,0.6l-10.9,7.6
				c-0.9,0.7-0.8,2.1,0.2,2.5h0c2.7,1.2,5.7,1.5,8.6,0.8l25.4-6.3c1-0.3,2.1-0.4,3.1-0.3l13.4,0.9l-4.8-4.4l27.1-9.9
				c1.4-0.5,2.1-2.2,1.5-3.6v0c-0.5-1-1.5-1.6-2.6-1.5l-41.7,4.8c-0.5,0.1-0.6,0.6-0.3,0.9l4.6,4.4L131,111.4l69-38
				c2.9-1.6,3.3-5.5,1-7.7l-0.8-0.7c-2.4-2.3-5.9-3-9.1-1.9l-95,32.2c0,0-33.9-13.3-52.7-12.8C43.4,82.5,43.5,95.1,66.1,105.8z"/>
			<g>
				<path class="st1" d="M46.5,78l0.1-0.2C46.5,77.9,46.5,78,46.5,78z"/>
				<path class="st1" d="M65.4,78.9c0-0.5-0.4-1-0.9-1.1c-2.2-0.6-8.3-2-13.8-2.3c-2.9,0.7-3.9,1.9-4.2,2.3L46.5,78
					c0,0,10.9,0.3,17.5,2C64.7,80.1,65.4,79.6,65.4,78.9z"/>
			</g>
		</g>
	</g>
	<g id="Text_3_">
	</g>
</g>
<g id="_x31_500_x__x_1500_px_Sticker_2">
	<g id="Background_4_">
	</g>
	<g id="Graphic_Element_2">
	</g>
	<g id="Text_2">
	</g>
	<g id="Graphic_Element_1">
	</g>
	<g id="Text_1">
	</g>
</g>
<g id="_x31_500_x__x_1500_px_Sticker_1">
	<g id="Background_5_">
	</g>
	<g id="Graphic_Element_2_1_">
	</g>
	<g id="Text_4_">
	</g>
	<g id="Graphic_Element_1_1_">
	</g>
</g>
</svg>
